<?xml version="1.0" encoding="UTF-8"?>
<svg width="512" height="512" viewBox="0 0 512 512" fill="none" xmlns="http://www.w3.org/2000/svg">
    <rect width="512" height="512" rx="128" fill="#2563EB"/>
    <path d="M384 288c0 70.7-57.3 128-128 128s-128-57.3-128-128c0-70.7 57.3-128 128-128 70.7 0 128 57.3 128 128z" fill="white"/>
    <path d="M256 96c88.4 0 160 71.6 160 160s-71.6 160-160 160S96 344.4 96 256 167.6 96 256 96zm0 32c-70.7 0-128 57.3-128 128s57.3 128 128 128 128-57.3 128-128-57.3-128-128-128zm64 128c0-35.3-28.7-64-64-64s-64 28.7-64 64 28.7 64 64 64 64-28.7 64-64z" fill="#1D4ED8"/>
</svg>
